# xmcd
#
# Track frame offsets: 
#        150
#        11618
#        25002
#        39659
#        54040
#        66571
#        84854
#        98360
#        112962
#        130302
#        145424
#        163256
#        181225
#
# Disc length: 2663 seconds
#
# Revision: 2
# Processed by: cddbd v1.5.2PL0 Copyright (c) Steve Scherf et al.
# Submitted via: ExactAudioCopy v1.3
#
DISCID=a00a650d
DTITLE=The Overtones - Sweet Soul Music
DYEAR=2015
DGENRE=Vocal
TTITLE0=Sweet Soul Music
TTITLE1=Get Ready
TTITLE2=Give Me Just A Little More Time
TTITLE3=Something Good
TTITLE4=Heatwave
TTITLE5=Let's Stay Together
TTITLE6=Moving On
TTITLE7=How Sweet It Is To Be Loved By You
TTITLE8=River Deep Mountain High
TTITLE9=Under The Boardwalk
TTITLE10=Giving Me Soul
TTITLE11=I Heard It Through The Grapevine
TTITLE12=Rainy Night In Georgia
EXTD=YEAR: 2015
EXTT0=
EXTT1=
EXTT2=
EXTT3=
EXTT4=
EXTT5=
EXTT6=
EXTT7=
EXTT8=
EXTT9=
EXTT10=
EXTT11=
EXTT12=
PLAYORDER=
